<svg xmlns="http://www.w3.org/2000/svg" xmlns:xlink="http://www.w3.org/1999/xlink" width="500" zoomAndPan="magnify" viewBox="0 0 375 225" height="300" preserveAspectRatio="xMidYMid meet" version="1.0"><defs><g/></defs><g fill="#3d373a" fill-opacity="1"><g transform="translate(5.620135, 122.650093)"><g><path d="M 32.410156 -39.453125 L 32.410156 -40.265625 L 21.003906 -40.265625 L 21.003906 -51.484375 C 21.003906 -58.089844 24.746094 -61.957031 30.105469 -61.957031 C 34.15625 -61.957031 37.398438 -59.773438 38.769531 -55.722656 L 39.515625 -56.035156 C 37.460938 -61.207031 33.097656 -64.074219 26.117188 -64.074219 C 16.394531 -64.074219 7.292969 -58.464844 7.292969 -41.574219 L 7.292969 -40.265625 L 0.5 -40.265625 L 0.5 -39.453125 L 7.292969 -39.453125 L 7.355469 -13.585938 C 7.355469 -6.109375 13.464844 0 21.003906 0 L 21.003906 -39.453125 Z M 32.410156 -39.453125 "/></g></g></g><g fill="#3d373a" fill-opacity="1"><g transform="translate(35.535048, 122.650093)"><g><path d="M 45.1875 -21.128906 C 45.1875 -33.59375 34.03125 -41.886719 23.683594 -41.886719 C 13.402344 -41.886719 2.179688 -33.59375 2.179688 -21.128906 C 2.179688 -8.476562 13.402344 0 23.683594 0 C 34.03125 0 45.1875 -8.476562 45.1875 -21.128906 Z M 16.703125 -21.128906 C 16.703125 -34.71875 18.699219 -41.074219 23.683594 -41.074219 C 28.671875 -41.074219 30.726562 -34.71875 30.726562 -21.128906 C 30.726562 -7.355469 28.671875 -0.808594 23.683594 -0.808594 C 18.699219 -0.808594 16.703125 -7.355469 16.703125 -21.128906 Z M 16.703125 -21.128906 "/></g></g></g><g fill="#3d373a" fill-opacity="1"><g transform="translate(79.03661, 122.650093)"><g><path d="M 4.238281 -56.347656 L 4.238281 -13.710938 C 4.238281 -6.109375 10.410156 0 17.949219 0 L 17.949219 -42.695312 C 17.949219 -50.238281 11.84375 -56.347656 4.238281 -56.347656 Z M 4.238281 -56.347656 "/></g></g></g><g fill="#3d373a" fill-opacity="1"><g transform="translate(97.234601, 122.650093)"><g><path d="M 38.769531 -40.265625 L 37.398438 -40.265625 L 17.949219 -22.5625 L 17.949219 -42.695312 C 17.949219 -50.238281 11.84375 -56.347656 4.238281 -56.347656 L 4.238281 -13.710938 C 4.238281 -6.109375 10.410156 0 17.949219 0 L 17.949219 -20.382812 L 24.683594 -7.417969 C 26.988281 -2.867188 31.726562 0 36.835938 0 L 44.253906 0 L 27.613281 -30.105469 Z M 38.769531 -40.265625 "/></g></g></g><g fill="#3d373a" fill-opacity="1"><g transform="translate(138.243199, 122.650093)"><g><path d="M 4.238281 -56.347656 L 4.238281 -13.710938 C 4.238281 -6.109375 10.410156 0 17.949219 0 L 17.949219 -42.695312 C 17.949219 -50.238281 11.84375 -56.347656 4.238281 -56.347656 Z M 4.238281 -56.347656 "/></g></g></g><g fill="#3d373a" fill-opacity="1"><g transform="translate(156.44119, 122.650093)"><g><path d="M 45.1875 -21.128906 C 45.1875 -33.59375 34.03125 -41.886719 23.683594 -41.886719 C 13.402344 -41.886719 2.179688 -33.59375 2.179688 -21.128906 C 2.179688 -8.476562 13.402344 0 23.683594 0 C 34.03125 0 45.1875 -8.476562 45.1875 -21.128906 Z M 16.703125 -21.128906 C 16.703125 -34.71875 18.699219 -41.074219 23.683594 -41.074219 C 28.671875 -41.074219 30.726562 -34.71875 30.726562 -21.128906 C 30.726562 -7.355469 28.671875 -0.808594 23.683594 -0.808594 C 18.699219 -0.808594 16.703125 -7.355469 16.703125 -21.128906 Z M 16.703125 -21.128906 "/></g></g></g><g fill="#3d373a" fill-opacity="1"><g transform="translate(199.942752, 122.650093)"><g><path d="M 32.785156 -40.265625 L 32.785156 -41.074219 C 23.746094 -41.074219 19.570312 -35.652344 17.949219 -28.171875 C 17.949219 -34.84375 12.527344 -40.265625 5.859375 -40.265625 L 4.238281 -40.265625 L 4.238281 -12.09375 C 4.238281 -5.421875 9.660156 0 16.332031 0 L 17.949219 0 L 17.949219 -19.382812 C 17.949219 -30.667969 21.066406 -40.265625 32.785156 -40.265625 Z M 32.785156 -40.265625 "/></g></g></g><g fill="#4d4448" fill-opacity="1"><g transform="translate(229.373128, 122.650093)"><g><path d="M 22.3125 -9.660156 C 22.3125 -14.023438 19.261719 -17.578125 14.273438 -17.578125 C 9.347656 -17.578125 6.296875 -14.023438 6.296875 -9.660156 C 6.296875 -5.296875 9.347656 -1.808594 14.273438 -1.808594 C 19.261719 -1.808594 22.3125 -5.359375 22.3125 -9.660156 Z M 22.3125 -9.660156 "/></g></g></g><g fill="#3d373a" fill-opacity="1"><g transform="translate(254.055745, 122.650093)"><g><path d="M 26.304688 -37.273438 C 29.542969 -37.273438 31.039062 -35.027344 31.039062 -30.292969 L 31.039062 -11.59375 C 31.039062 -5.171875 36.277344 0 42.632812 0 L 44.753906 0 L 44.753906 -20.132812 C 44.753906 -25.242188 45.8125 -37.273438 53.105469 -37.273438 C 56.347656 -37.273438 57.902344 -35.027344 57.902344 -30.292969 L 57.902344 -11.59375 C 57.902344 -5.171875 63.078125 0 69.496094 0 L 71.554688 0 L 71.554688 -26.800781 C 71.554688 -35.402344 66.878906 -41.074219 58.339844 -41.074219 C 50.300781 -41.074219 46.3125 -36.027344 44.691406 -28.421875 C 44.128906 -36.152344 39.515625 -41.074219 31.539062 -41.074219 C 23.5625 -41.074219 19.570312 -36.089844 17.949219 -28.671875 C 17.949219 -35.089844 12.777344 -40.265625 6.359375 -40.265625 L 4.238281 -40.265625 L 4.238281 -11.59375 C 4.238281 -5.171875 9.472656 0 15.832031 0 L 17.949219 0 L 17.949219 -22.8125 C 18.449219 -30.851562 21.253906 -37.273438 26.304688 -37.273438 Z M 26.304688 -37.273438 "/></g></g></g><g fill="#3d373a" fill-opacity="1"><g transform="translate(325.603162, 122.650093)"><g><path d="M 20.878906 -9.535156 C 24.808594 -3.554688 31.414062 0 38.519531 0 L 42.011719 0 L 25.554688 -25.117188 L 36.585938 -40.265625 L 35.589844 -40.265625 L 25.054688 -25.867188 L 21.816406 -30.789062 C 17.886719 -36.710938 11.28125 -40.265625 4.175781 -40.265625 L 0.625 -40.265625 L 15.957031 -17.015625 L 2.992188 0 L 3.925781 0 L 16.515625 -16.207031 Z M 20.878906 -9.535156 "/></g></g></g><g fill="#4d4448" fill-opacity="1"><g transform="translate(51.014273, 162.035406)"><g><path d="M 1.46875 -10.921875 L 4.078125 -10.921875 C 4.617188 -10.921875 5.117188 -10.84375 5.578125 -10.6875 C 6.046875 -10.53125 6.445312 -10.304688 6.78125 -10.015625 C 7.113281 -9.734375 7.367188 -9.394531 7.546875 -9 C 7.734375 -8.613281 7.828125 -8.1875 7.828125 -7.71875 C 7.828125 -7.332031 7.765625 -6.972656 7.640625 -6.640625 C 7.523438 -6.316406 7.359375 -6.019531 7.140625 -5.75 C 6.921875 -5.476562 6.660156 -5.25 6.359375 -5.0625 C 6.054688 -4.875 5.722656 -4.726562 5.359375 -4.625 L 8.484375 0 L 7.109375 0 L 4.078125 -4.5 L 2.609375 -4.5 L 2.609375 0 L 1.46875 0 Z M 4.078125 -5.5625 C 4.859375 -5.5625 5.488281 -5.753906 5.96875 -6.140625 C 6.445312 -6.535156 6.6875 -7.066406 6.6875 -7.734375 C 6.6875 -8.378906 6.445312 -8.894531 5.96875 -9.28125 C 5.488281 -9.675781 4.859375 -9.875 4.078125 -9.875 L 2.609375 -9.875 L 2.609375 -5.5625 Z M 4.078125 -5.5625 "/></g></g></g><g fill="#4d4448" fill-opacity="1"><g transform="translate(65.047084, 162.035406)"><g><path d="M 6.28125 0.15625 C 5.53125 0.15625 4.820312 0.0078125 4.15625 -0.28125 C 3.5 -0.570312 2.921875 -0.972656 2.421875 -1.484375 C 1.929688 -1.992188 1.539062 -2.585938 1.25 -3.265625 C 0.957031 -3.953125 0.8125 -4.6875 0.8125 -5.46875 C 0.8125 -6.238281 0.957031 -6.960938 1.25 -7.640625 C 1.539062 -8.328125 1.929688 -8.925781 2.421875 -9.4375 C 2.921875 -9.957031 3.5 -10.363281 4.15625 -10.65625 C 4.820312 -10.945312 5.53125 -11.09375 6.28125 -11.09375 C 7.03125 -11.09375 7.734375 -10.945312 8.390625 -10.65625 C 9.054688 -10.363281 9.632812 -9.957031 10.125 -9.4375 C 10.625 -8.925781 11.019531 -8.332031 11.3125 -7.65625 C 11.601562 -6.976562 11.75 -6.25 11.75 -5.46875 C 11.75 -4.695312 11.601562 -3.96875 11.3125 -3.28125 C 11.019531 -2.601562 10.625 -2.007812 10.125 -1.5 C 9.632812 -0.988281 9.054688 -0.582031 8.390625 -0.28125 C 7.734375 0.0078125 7.03125 0.15625 6.28125 0.15625 Z M 6.28125 -0.96875 C 6.875 -0.96875 7.429688 -1.078125 7.953125 -1.296875 C 8.484375 -1.523438 8.9375 -1.84375 9.3125 -2.25 C 9.6875 -2.65625 9.976562 -3.128906 10.1875 -3.671875 C 10.40625 -4.222656 10.515625 -4.820312 10.515625 -5.46875 C 10.515625 -6.101562 10.40625 -6.695312 10.1875 -7.25 C 9.976562 -7.800781 9.6875 -8.273438 9.3125 -8.671875 C 8.9375 -9.078125 8.484375 -9.394531 7.953125 -9.625 C 7.429688 -9.851562 6.875 -9.96875 6.28125 -9.96875 C 5.664062 -9.96875 5.097656 -9.851562 4.578125 -9.625 C 4.066406 -9.394531 3.625 -9.078125 3.25 -8.671875 C 2.875 -8.273438 2.578125 -7.800781 2.359375 -7.25 C 2.148438 -6.695312 2.046875 -6.101562 2.046875 -5.46875 C 2.046875 -4.820312 2.148438 -4.222656 2.359375 -3.671875 C 2.578125 -3.128906 2.875 -2.65625 3.25 -2.25 C 3.625 -1.84375 4.066406 -1.523438 4.578125 -1.296875 C 5.097656 -1.078125 5.664062 -0.96875 6.28125 -0.96875 Z M 6.28125 -0.96875 "/></g></g></g><g fill="#4d4448" fill-opacity="1"><g transform="translate(82.506462, 162.035406)"><g><path d="M 1.46875 -10.921875 L 4.078125 -10.921875 C 4.617188 -10.921875 5.117188 -10.835938 5.578125 -10.671875 C 6.046875 -10.515625 6.445312 -10.289062 6.78125 -10 C 7.113281 -9.707031 7.367188 -9.359375 7.546875 -8.953125 C 7.734375 -8.554688 7.828125 -8.117188 7.828125 -7.640625 C 7.828125 -7.160156 7.734375 -6.71875 7.546875 -6.3125 C 7.367188 -5.90625 7.113281 -5.554688 6.78125 -5.265625 C 6.445312 -4.972656 6.046875 -4.742188 5.578125 -4.578125 C 5.117188 -4.421875 4.617188 -4.34375 4.078125 -4.34375 L 2.609375 -4.34375 L 2.609375 0 L 1.46875 0 Z M 4.078125 -5.40625 C 4.859375 -5.40625 5.488281 -5.609375 5.96875 -6.015625 C 6.445312 -6.421875 6.6875 -6.96875 6.6875 -7.65625 C 6.6875 -8.320312 6.445312 -8.859375 5.96875 -9.265625 C 5.488281 -9.671875 4.859375 -9.875 4.078125 -9.875 L 2.609375 -9.875 L 2.609375 -5.40625 Z M 4.078125 -5.40625 "/></g></g></g><g fill="#4d4448" fill-opacity="1"><g transform="translate(95.968183, 162.035406)"><g><path d="M 4.65625 -11.25 L 4.96875 -11.25 L 9.140625 0 L 7.875 0 L 6.84375 -2.875 L 2.703125 -2.875 L 1.6875 0 L 0.484375 0 Z M 6.46875 -3.9375 L 4.78125 -8.65625 L 3.078125 -3.9375 Z M 6.46875 -3.9375 "/></g></g></g><g fill="#4d4448" fill-opacity="1"><g transform="translate(110.490497, 162.035406)"><g/></g></g><g fill="#4d4448" fill-opacity="1"><g transform="translate(118.975514, 162.035406)"><g><path d="M 1.46875 -10.921875 L 2.609375 -10.921875 L 2.609375 -6.03125 L 8.484375 -6.03125 L 8.484375 -10.921875 L 9.625 -10.921875 L 9.625 0 L 8.484375 0 L 8.484375 -4.96875 L 2.609375 -4.96875 L 2.609375 0 L 1.46875 0 Z M 1.46875 -10.921875 "/></g></g></g><g fill="#4d4448" fill-opacity="1"><g transform="translate(134.966358, 162.035406)"><g><path d="M 1.46875 -10.921875 L 7.09375 -10.921875 L 7.09375 -9.875 L 2.609375 -9.875 L 2.609375 -6.203125 L 6.03125 -6.203125 L 6.03125 -5.140625 L 2.609375 -5.140625 L 2.609375 -1.0625 L 7.171875 -1.0625 L 7.171875 0 L 1.46875 0 Z M 1.46875 -10.921875 "/></g></g></g><g fill="#4d4448" fill-opacity="1"><g transform="translate(148.020142, 162.035406)"><g><path d="M 6.234375 0.15625 C 5.460938 0.15625 4.742188 0.015625 4.078125 -0.265625 C 3.421875 -0.554688 2.847656 -0.945312 2.359375 -1.4375 C 1.878906 -1.9375 1.5 -2.523438 1.21875 -3.203125 C 0.945312 -3.878906 0.8125 -4.613281 0.8125 -5.40625 C 0.8125 -6.207031 0.957031 -6.953125 1.25 -7.640625 C 1.539062 -8.328125 1.929688 -8.925781 2.421875 -9.4375 C 2.921875 -9.957031 3.5 -10.363281 4.15625 -10.65625 C 4.820312 -10.945312 5.53125 -11.09375 6.28125 -11.09375 C 7.09375 -11.09375 7.851562 -10.921875 8.5625 -10.578125 C 9.269531 -10.234375 9.878906 -9.769531 10.390625 -9.1875 L 9.53125 -8.453125 C 9.101562 -8.941406 8.609375 -9.316406 8.046875 -9.578125 C 7.492188 -9.835938 6.894531 -9.96875 6.25 -9.96875 C 5.632812 -9.96875 5.070312 -9.851562 4.5625 -9.625 C 4.050781 -9.40625 3.609375 -9.09375 3.234375 -8.6875 C 2.859375 -8.289062 2.566406 -7.816406 2.359375 -7.265625 C 2.148438 -6.722656 2.046875 -6.128906 2.046875 -5.484375 C 2.046875 -4.828125 2.148438 -4.222656 2.359375 -3.671875 C 2.566406 -3.117188 2.859375 -2.640625 3.234375 -2.234375 C 3.617188 -1.835938 4.070312 -1.523438 4.59375 -1.296875 C 5.125 -1.078125 5.695312 -0.96875 6.3125 -0.96875 C 7 -0.96875 7.617188 -1.101562 8.171875 -1.375 C 8.722656 -1.644531 9.191406 -2.007812 9.578125 -2.46875 L 10.390625 -1.765625 C 9.878906 -1.160156 9.269531 -0.6875 8.5625 -0.34375 C 7.851562 -0.0078125 7.078125 0.15625 6.234375 0.15625 Z M 6.234375 0.15625 "/></g></g></g><g fill="#4d4448" fill-opacity="1"><g transform="translate(164.043618, 162.035406)"><g><path d="M 1.46875 -10.921875 L 2.609375 -10.921875 L 2.609375 -6.03125 L 8.484375 -6.03125 L 8.484375 -10.921875 L 9.625 -10.921875 L 9.625 0 L 8.484375 0 L 8.484375 -4.96875 L 2.609375 -4.96875 L 2.609375 0 L 1.46875 0 Z M 1.46875 -10.921875 "/></g></g></g><g fill="#4d4448" fill-opacity="1"><g transform="translate(180.034463, 162.035406)"><g><path d="M 4.65625 -11.25 L 4.96875 -11.25 L 9.140625 0 L 7.875 0 L 6.84375 -2.875 L 2.703125 -2.875 L 1.6875 0 L 0.484375 0 Z M 6.46875 -3.9375 L 4.78125 -8.65625 L 3.078125 -3.9375 Z M 6.46875 -3.9375 "/></g></g></g><g fill="#4d4448" fill-opacity="1"><g transform="translate(194.556785, 162.035406)"><g/></g></g><g fill="#4d4448" fill-opacity="1"><g transform="translate(203.041809, 162.035406)"><g><path d="M 1.46875 -10.921875 L 7.09375 -10.921875 L 7.09375 -9.875 L 2.609375 -9.875 L 2.609375 -6.203125 L 6.03125 -6.203125 L 6.03125 -5.140625 L 2.609375 -5.140625 L 2.609375 -1.0625 L 7.171875 -1.0625 L 7.171875 0 L 1.46875 0 Z M 1.46875 -10.921875 "/></g></g></g><g fill="#4d4448" fill-opacity="1"><g transform="translate(216.0956, 162.035406)"><g><path d="M 2.578125 -8.5 L 2.578125 0 L 1.46875 0 L 1.46875 -11.25 L 1.796875 -11.25 L 9.171875 -2.4375 L 9.171875 -10.921875 L 10.28125 -10.921875 L 10.28125 0.328125 L 9.953125 0.328125 Z M 2.578125 -8.5 "/></g></g></g><g fill="#4d4448" fill-opacity="1"><g transform="translate(232.739132, 162.035406)"><g/></g></g><g fill="#4d4448" fill-opacity="1"><g transform="translate(241.224156, 162.035406)"><g><path d="M 1.46875 -11.25 L 1.796875 -11.25 L 6.640625 -4.390625 L 11.421875 -11.25 L 11.75 -11.25 L 11.75 0 L 10.609375 0 L 10.609375 -8.171875 L 6.765625 -2.6875 L 6.4375 -2.6875 L 2.609375 -8.09375 L 2.609375 0 L 1.46875 0 Z M 1.46875 -11.25 "/></g></g></g><g fill="#4d4448" fill-opacity="1"><g transform="translate(259.336218, 162.035406)"><g><path d="M 1.46875 -10.921875 L 7.09375 -10.921875 L 7.09375 -9.875 L 2.609375 -9.875 L 2.609375 -6.203125 L 6.03125 -6.203125 L 6.03125 -5.140625 L 2.609375 -5.140625 L 2.609375 -1.0625 L 7.171875 -1.0625 L 7.171875 0 L 1.46875 0 Z M 3.71875 -12.21875 L 5.5625 -14.609375 L 6.375 -13.921875 L 4.328125 -11.703125 Z M 3.71875 -12.21875 "/></g></g></g><g fill="#4d4448" fill-opacity="1"><g transform="translate(272.390009, 162.035406)"><g><path d="M 3.953125 -5.546875 L 0.6875 -10.921875 L 2.0625 -10.921875 L 4.6875 -6.5 L 7.390625 -10.921875 L 8.65625 -10.921875 L 5.28125 -5.546875 L 8.703125 0 L 7.328125 0 L 4.5625 -4.59375 L 1.703125 0 L 0.40625 0 Z M 3.953125 -5.546875 "/></g></g></g><g fill="#4d4448" fill-opacity="1"><g transform="translate(286.406502, 162.035406)"><g><path d="M 1.46875 -10.921875 L 2.609375 -10.921875 L 2.609375 0 L 1.46875 0 Z M 1.46875 -10.921875 "/></g></g></g><g fill="#4d4448" fill-opacity="1"><g transform="translate(295.381048, 162.035406)"><g><path d="M 6.234375 0.15625 C 5.460938 0.15625 4.742188 0.015625 4.078125 -0.265625 C 3.421875 -0.554688 2.847656 -0.945312 2.359375 -1.4375 C 1.878906 -1.9375 1.5 -2.523438 1.21875 -3.203125 C 0.945312 -3.878906 0.8125 -4.613281 0.8125 -5.40625 C 0.8125 -6.207031 0.957031 -6.953125 1.25 -7.640625 C 1.539062 -8.328125 1.929688 -8.925781 2.421875 -9.4375 C 2.921875 -9.957031 3.5 -10.363281 4.15625 -10.65625 C 4.820312 -10.945312 5.53125 -11.09375 6.28125 -11.09375 C 7.09375 -11.09375 7.851562 -10.921875 8.5625 -10.578125 C 9.269531 -10.234375 9.878906 -9.769531 10.390625 -9.1875 L 9.53125 -8.453125 C 9.101562 -8.941406 8.609375 -9.316406 8.046875 -9.578125 C 7.492188 -9.835938 6.894531 -9.96875 6.25 -9.96875 C 5.632812 -9.96875 5.070312 -9.851562 4.5625 -9.625 C 4.050781 -9.40625 3.609375 -9.09375 3.234375 -8.6875 C 2.859375 -8.289062 2.566406 -7.816406 2.359375 -7.265625 C 2.148438 -6.722656 2.046875 -6.128906 2.046875 -5.484375 C 2.046875 -4.828125 2.148438 -4.222656 2.359375 -3.671875 C 2.566406 -3.117188 2.859375 -2.640625 3.234375 -2.234375 C 3.617188 -1.835938 4.070312 -1.523438 4.59375 -1.296875 C 5.125 -1.078125 5.695312 -0.96875 6.3125 -0.96875 C 7 -0.96875 7.617188 -1.101562 8.171875 -1.375 C 8.722656 -1.644531 9.191406 -2.007812 9.578125 -2.46875 L 10.390625 -1.765625 C 9.878906 -1.160156 9.269531 -0.6875 8.5625 -0.34375 C 7.851562 -0.0078125 7.078125 0.15625 6.234375 0.15625 Z M 6.234375 0.15625 "/></g></g></g><g fill="#4d4448" fill-opacity="1"><g transform="translate(311.404532, 162.035406)"><g><path d="M 6.28125 0.15625 C 5.53125 0.15625 4.820312 0.0078125 4.15625 -0.28125 C 3.5 -0.570312 2.921875 -0.972656 2.421875 -1.484375 C 1.929688 -1.992188 1.539062 -2.585938 1.25 -3.265625 C 0.957031 -3.953125 0.8125 -4.6875 0.8125 -5.46875 C 0.8125 -6.238281 0.957031 -6.960938 1.25 -7.640625 C 1.539062 -8.328125 1.929688 -8.925781 2.421875 -9.4375 C 2.921875 -9.957031 3.5 -10.363281 4.15625 -10.65625 C 4.820312 -10.945312 5.53125 -11.09375 6.28125 -11.09375 C 7.03125 -11.09375 7.734375 -10.945312 8.390625 -10.65625 C 9.054688 -10.363281 9.632812 -9.957031 10.125 -9.4375 C 10.625 -8.925781 11.019531 -8.332031 11.3125 -7.65625 C 11.601562 -6.976562 11.75 -6.25 11.75 -5.46875 C 11.75 -4.695312 11.601562 -3.96875 11.3125 -3.28125 C 11.019531 -2.601562 10.625 -2.007812 10.125 -1.5 C 9.632812 -0.988281 9.054688 -0.582031 8.390625 -0.28125 C 7.734375 0.0078125 7.03125 0.15625 6.28125 0.15625 Z M 6.28125 -0.96875 C 6.875 -0.96875 7.429688 -1.078125 7.953125 -1.296875 C 8.484375 -1.523438 8.9375 -1.84375 9.3125 -2.25 C 9.6875 -2.65625 9.976562 -3.128906 10.1875 -3.671875 C 10.40625 -4.222656 10.515625 -4.820312 10.515625 -5.46875 C 10.515625 -6.101562 10.40625 -6.695312 10.1875 -7.25 C 9.976562 -7.800781 9.6875 -8.273438 9.3125 -8.671875 C 8.9375 -9.078125 8.484375 -9.394531 7.953125 -9.625 C 7.429688 -9.851562 6.875 -9.96875 6.28125 -9.96875 C 5.664062 -9.96875 5.097656 -9.851562 4.578125 -9.625 C 4.066406 -9.394531 3.625 -9.078125 3.25 -8.671875 C 2.875 -8.273438 2.578125 -7.800781 2.359375 -7.25 C 2.148438 -6.695312 2.046875 -6.101562 2.046875 -5.46875 C 2.046875 -4.820312 2.148438 -4.222656 2.359375 -3.671875 C 2.578125 -3.128906 2.875 -2.65625 3.25 -2.25 C 3.625 -1.84375 4.066406 -1.523438 4.578125 -1.296875 C 5.097656 -1.078125 5.664062 -0.96875 6.28125 -0.96875 Z M 6.28125 -0.96875 "/></g></g></g></svg>